<svg xmlns="http://www.w3.org/2000/svg" viewBox="0 0 171.07 37.39"><defs><style>.cls-1{fill:#1d1d1b;}</style></defs><g id="Livello_2" data-name="Livello 2"><g id="Livello_1-2" data-name="Livello 1"><path class="cls-1" d="M26.93,31.15a7.63,7.63,0,0,1,.72,2.5c0,1.21-1,2.24-3,3.07a6.54,6.54,0,0,1-2.47.67,2.51,2.51,0,0,1-1.54-.45,3.46,3.46,0,0,1-.88-.94q-.48-.91-3.75-8.69l-1.49.1h-6v5.42a13.23,13.23,0,0,1-.08,1.66A3.75,3.75,0,0,1,8,35.76c-.45.86-1.7,1.3-3.75,1.3C2,37.06.67,36.46.29,35.28A8.09,8.09,0,0,1,0,32.78V6.14A13.59,13.59,0,0,1,.07,4.49,3.8,3.8,0,0,1,.53,3.22c.45-.87,1.69-1.3,3.74-1.3H14.64A13.3,13.3,0,0,1,22.85,5,11.38,11.38,0,0,1,26,9a12.75,12.75,0,0,1,1.24,5.67,11.94,11.94,0,0,1-3.6,8.93Q24.73,26.15,26.93,31.15ZM8.5,18.91h6.14a4.58,4.58,0,0,0,2.78-1.05,3.73,3.73,0,0,0,1.4-3.17,3.79,3.79,0,0,0-1.4-3.19,4.61,4.61,0,0,0-2.88-1.08h-6Z"/><path class="cls-1" d="M41,37a10.23,10.23,0,0,1-8-3.67,13.18,13.18,0,0,1-3.19-9V16a13.72,13.72,0,0,1,.07-1.68,4.35,4.35,0,0,1,.41-1.24c.45-.87,1.69-1.3,3.74-1.3,2.24,0,3.55.61,3.94,1.82A7.64,7.64,0,0,1,38.26,16v8.4a4.09,4.09,0,0,0,1.12,3.07,4.14,4.14,0,0,0,3,1.11,4.23,4.23,0,0,0,3.07-1.15,4.08,4.08,0,0,0,1.18-3V15.94a13.67,13.67,0,0,1,.07-1.66A4,4,0,0,1,47.18,13c.42-.83,1.65-1.25,3.7-1.25s3.25.43,3.7,1.3a4.25,4.25,0,0,1,.4,1.27A13.16,13.16,0,0,1,55.06,16V33a12.48,12.48,0,0,1-.08,1.6,3.38,3.38,0,0,1-.45,1.23c-.48.83-1.71,1.25-3.7,1.25s-3.15-.39-3.6-1.16a3.8,3.8,0,0,1-.48-2,5.07,5.07,0,0,1-.86,1A12.48,12.48,0,0,1,44.59,36,6.37,6.37,0,0,1,41,37Z"/><path class="cls-1" d="M72.77,11.86c2.85,0,5.46,1.26,7.85,3.79a12.64,12.64,0,0,1,0,17.59Q77.08,37,73,37T67.2,34.7c-.26,1.57-1.63,2.36-4.13,2.36-2,0-3.25-.44-3.69-1.3A4.31,4.31,0,0,1,59,34.49a13.67,13.67,0,0,1-.07-1.66V4.18A13.67,13.67,0,0,1,59,2.52a3.73,3.73,0,0,1,.41-1.22C59.82.43,61.07,0,63.12,0s3.23.43,3.65,1.3a3.75,3.75,0,0,1,.45,1.27,13.16,13.16,0,0,1,.08,1.65v10A6.65,6.65,0,0,1,72.77,11.86Zm-4.2,15.5a3.83,3.83,0,0,0,3,1.3,4.36,4.36,0,0,0,4.27-4.18,4.29,4.29,0,0,0-1.15-2.9,3.87,3.87,0,0,0-3.07-1.32,3.76,3.76,0,0,0-3,1.34,4.44,4.44,0,0,0-1.13,2.9A4.14,4.14,0,0,0,68.57,27.36Z"/><path class="cls-1" d="M104.5,12.1a3.28,3.28,0,0,1,1.51,1,3.38,3.38,0,0,1,.6,2.23,7.65,7.65,0,0,1-.91,3.36,2.86,2.86,0,0,1-2.64,1.83,3.71,3.71,0,0,1-1.66-.39,4.91,4.91,0,0,0-2.09-.38,3.77,3.77,0,0,0-2.42.91,2.76,2.76,0,0,0-1.13,2.21V32.93a13.48,13.48,0,0,1-.07,1.65,3.84,3.84,0,0,1-.46,1.28c-.48.83-1.73,1.24-3.74,1.24a5.31,5.31,0,0,1-3.31-.81,2.89,2.89,0,0,1-.87-2.07V16a16,16,0,0,1,.07-1.65,4.12,4.12,0,0,1,.41-1.23q.67-1.29,3.75-1.29c1.92,0,3.12.37,3.6,1.1a2.77,2.77,0,0,1,.52,1.59,8,8,0,0,1,.7-.82,9,9,0,0,1,1.94-1.3,5.65,5.65,0,0,1,2.62-.81,12.72,12.72,0,0,1,1.9.12A10.72,10.72,0,0,1,104.5,12.1Z"/><path class="cls-1" d="M117.14,7.13a2,2,0,0,1-1.27,1,8.32,8.32,0,0,1-2.42.29A8.39,8.39,0,0,1,111,8.11a2,2,0,0,1-1.27-1,4.13,4.13,0,0,1-.43-1.27,13.59,13.59,0,0,1-.07-1.65,13.67,13.67,0,0,1,.07-1.66,3.73,3.73,0,0,1,.41-1.22c.44-.87,1.69-1.3,3.74-1.3s3.23.43,3.65,1.3a3.8,3.8,0,0,1,.46,1.27,16,16,0,0,1,.07,1.65,16.12,16.12,0,0,1-.07,1.66A4,4,0,0,1,117.14,7.13ZM109.25,16a13.48,13.48,0,0,1,.07-1.65,4.36,4.36,0,0,1,.41-1.28c.44-.83,1.69-1.24,3.74-1.24a5.13,5.13,0,0,1,3.27.81,2.66,2.66,0,0,1,.86,2.07c0,.32.05.78.05,1.39v16.8a15.89,15.89,0,0,1-.07,1.65,3.84,3.84,0,0,1-.46,1.28c-.42.83-1.65,1.24-3.7,1.24s-3.25-.43-3.69-1.29a4.4,4.4,0,0,1-.41-1.25,13.5,13.5,0,0,1-.07-1.68Z"/><path class="cls-1" d="M129.41,24.46a3.87,3.87,0,0,0,1.34,3.16,4.35,4.35,0,0,0,2.86,1.13,4.94,4.94,0,0,0,2.83-.89,4.21,4.21,0,0,1,2.13-.88c1,0,2.13.84,3.51,2.54a4.25,4.25,0,0,1,1.1,2.5c0,1.21-.88,2.35-2.64,3.4a11.39,11.39,0,0,1-6.72,1.92,13.83,13.83,0,0,1-8.59-3.21A11.56,11.56,0,0,1,122,30a12.8,12.8,0,0,1-1.24-5.66A12.53,12.53,0,0,1,122,18.74a11.59,11.59,0,0,1,3.22-4,13.45,13.45,0,0,1,8.5-3.17,12.85,12.85,0,0,1,3.55.5,11.94,11.94,0,0,1,2.54,1l.77.48c.58.38,1,.69,1.34.91a2.73,2.73,0,0,1,1.25,2.18,5.1,5.1,0,0,1-1,2.76C141,21.1,139.92,22,138.86,22a5.57,5.57,0,0,1-2.59-1.05,3.44,3.44,0,0,0-2.47-.82,4.67,4.67,0,0,0-3,1.15A3.93,3.93,0,0,0,129.41,24.46Z"/><path class="cls-1" d="M162.72,14.5c.19-1.8,1.45-2.69,3.79-2.69a9.55,9.55,0,0,1,2.78.29,2,2,0,0,1,1.28,1,4.18,4.18,0,0,1,.43,1.28,13.48,13.48,0,0,1,.07,1.65v16.8a13.67,13.67,0,0,1-.07,1.66,4.63,4.63,0,0,1-.41,1.27c-.45.83-1.54,1.25-3.29,1.25a6.48,6.48,0,0,1-3.5-.65,2.57,2.57,0,0,1-1-1.9c-1.19,1.7-3.16,2.55-5.93,2.55s-5.34-1.27-7.71-3.79a12.54,12.54,0,0,1-3.55-8.81,12.36,12.36,0,0,1,3.58-8.79A10.67,10.67,0,0,1,157,11.86a7.52,7.52,0,0,1,3,.57,6.8,6.8,0,0,1,1.87,1.08A6.85,6.85,0,0,1,162.72,14.5Zm-8.74,10a4,4,0,0,0,1.25,2.86,4.1,4.1,0,0,0,3,1.27,3.82,3.82,0,0,0,3-1.3,4.15,4.15,0,0,0,1.17-2.85,4.42,4.42,0,0,0-1.13-2.91,3.76,3.76,0,0,0-3-1.34,3.9,3.9,0,0,0-3.07,1.34A4.34,4.34,0,0,0,154,24.48Z"/></g></g></svg>